<svg height='300px' width='300px'  fill="#000000" xmlns="http://www.w3.org/2000/svg" xmlns:xlink="http://www.w3.org/1999/xlink" version="1.1" x="0px" y="0px" viewBox="0 0 100 100" enable-background="new 0 0 100 100" xml:space="preserve"><path fill="#000000" d="M79.375,14.514c-3.815,0-7.751,3.577-8.943,5.843s-3.337,8.229-4.651,10.255  c-1.312,2.026-4.769,9.658-9.418,9.658c-4.651,0-3.221-0.596-3.221-0.596l-3.458-9.3c0,0,6.319-7.155,6.679-8.108  c0.356-0.955,0-1.551,0-1.551s0.595,0.355,1.31-0.121c0.717-0.476,7.99-4.53,9.779-6.319c1.788-1.787,4.53-1.431,7.514-2.98  c2.979-1.55,5.961-3.935,4.888-6.917c-1.073-2.98-3.577-2.385-4.53-2.385c-0.955,0-7.992,2.146-7.992,2.146s-4.769-1.906-7.152-2.86  c-2.386-0.954-7.036-1.073-9.541-0.717c-2.503,0.358-8.584,2.267-9.776,2.506c-1.193,0.237-3.34,0.835-5.366,5.842  c-2.028,5.009-3.937,10.494-4.652,11.686c-0.715,1.193-5.365,5.844-6.677,7.752c-1.312,1.907-1.67,4.174-0.358,9.182  c1.312,5.009,5.128,21.703,5.725,25.757c0.596,4.055,0.476,11.089-0.954,16.932c-1.225,6.335-3.104,9.229-5.775,11.168  c-2.479,1.8-3.3,2.627-3.3,3.938c0,1.021,0.771,1.897,2.037,2.092c3.597,0.389,26.933,0.972,32.766,0.972  c5.835,0,5.835-2.443,5.835-3.609c0-1.133-3.292-9.775-1.335-14.775h0.06c2.505-6,4.414-5.613,7.513-10.742  c3.102-5.127,5.604-9.843,4.89-17.117c0,0,6.319-12.137,7.871-16.072c1.551-3.934,0.835-8.332,1.668-11.909  C81.641,20.581,84.383,14.514,79.375,14.514z"></path></svg>