<svg width="383" height="93" viewBox="0 0 383 93" fill="none" xmlns="http://www.w3.org/2000/svg">
    <path d="M88.4468 46.5C88.4468 69.6728 69.6728 88.4468 46.5 88.4468C23.3272 88.4468 4.55322 69.6728 4.55322 46.5C4.55322 23.3272 23.3272 4.55322 46.5 4.55322C69.6728 4.55322 88.4468 23.3272 88.4468 46.5Z" fill="#20212E" stroke="#A90C0F"></path>
    <path d="M32.9976 23.7724V28.2483H39.1147V44.0136H48.4147V21.5344L32.9976 23.7724Z" fill="#C51E25"></path>
    <path d="M39.3634 49.31V63.6578H32.9728V70.8691H52.2939C52.2939 70.8691 63.2351 70.1231 67.2137 57.5159C71.1923 44.9086 66.2936 32.7739 66.2936 32.7739C66.2936 32.7739 62.8869 24.5183 55.3525 22.6284V57.7645H48.3899V49.31H39.3634Z" fill="#C51E25"></path>
    <path d="M141.804 34.44V60H134.784V49.992H126.216V60H119.196V34.44H126.216V43.872H134.784V34.44H141.804ZM154.736 60.36C153.08 60.36 151.604 60.108 150.308 59.604C149.012 59.076 147.92 58.368 147.032 57.48C146.168 56.592 145.508 55.572 145.052 54.42C144.596 53.268 144.368 52.056 144.368 50.784C144.368 49.416 144.584 48.12 145.016 46.896C145.472 45.672 146.132 44.604 146.996 43.692C147.884 42.78 148.964 42.06 150.236 41.532C151.532 40.98 153.032 40.704 154.736 40.704C156.416 40.704 157.904 40.98 159.2 41.532C160.496 42.06 161.576 42.78 162.44 43.692C163.328 44.58 163.988 45.624 164.42 46.824C164.876 48 165.104 49.236 165.104 50.532C165.104 50.892 165.08 51.264 165.032 51.648C165.008 52.008 164.972 52.332 164.924 52.62H151.64C151.712 53.628 152.084 54.36 152.756 54.816C153.428 55.248 154.16 55.464 154.952 55.464C155.696 55.464 156.392 55.296 157.04 54.96C157.712 54.624 158.156 54.156 158.372 53.556L164.168 55.212C163.4 56.724 162.212 57.96 160.604 58.92C159.02 59.88 157.064 60.36 154.736 60.36ZM157.76 48.516C157.64 47.604 157.304 46.884 156.752 46.356C156.2 45.828 155.492 45.564 154.628 45.564C153.764 45.564 153.056 45.828 152.504 46.356C151.952 46.884 151.616 47.604 151.496 48.516H157.76ZM171.76 41.064L174.46 45.708L174.82 46.464L175.18 45.708L177.88 41.064H184.828L178.492 50.532L185.008 60H178.06L175.144 55.356L174.82 54.636L174.496 55.356L171.58 60H164.632L171.148 50.532L164.812 41.064H171.76ZM186.509 60V41.064H193.349V60H186.509ZM186.509 39.48V33.72H193.349V39.48H186.509ZM204.73 60.36C203.434 60.36 202.234 60.12 201.13 59.64C200.05 59.16 199.114 58.488 198.322 57.624C197.53 56.736 196.906 55.692 196.45 54.492C196.018 53.268 195.802 51.936 195.802 50.496C195.802 49.104 196.006 47.808 196.414 46.608C196.822 45.408 197.386 44.376 198.106 43.512C198.85 42.624 199.726 41.94 200.734 41.46C201.742 40.956 202.858 40.704 204.082 40.704C205.306 40.704 206.422 40.98 207.43 41.532C208.462 42.084 209.254 42.864 209.806 43.872V33.72H216.646V52.44C216.646 53.088 216.742 53.544 216.934 53.808C217.126 54.048 217.462 54.192 217.942 54.24V60C216.766 60.24 215.806 60.36 215.062 60.36C212.734 60.36 211.39 59.484 211.03 57.732L210.886 57.048C210.238 58.2 209.362 59.04 208.258 59.568C207.154 60.096 205.978 60.36 204.73 60.36ZM206.602 54.6C207.85 54.6 208.93 53.952 209.842 52.656V49.272C209.506 48.432 209.014 47.76 208.366 47.256C207.718 46.728 207.034 46.464 206.314 46.464C205.81 46.464 205.342 46.572 204.91 46.788C204.502 47.004 204.142 47.304 203.83 47.688C203.542 48.072 203.302 48.516 203.11 49.02C202.942 49.524 202.858 50.064 202.858 50.64C202.858 51.84 203.194 52.8 203.866 53.52C204.562 54.24 205.474 54.6 206.602 54.6ZM230.075 60.36C228.419 60.36 226.943 60.108 225.647 59.604C224.351 59.076 223.259 58.368 222.371 57.48C221.507 56.592 220.847 55.572 220.391 54.42C219.935 53.268 219.707 52.056 219.707 50.784C219.707 49.416 219.923 48.12 220.355 46.896C220.811 45.672 221.471 44.604 222.335 43.692C223.223 42.78 224.303 42.06 225.575 41.532C226.871 40.98 228.371 40.704 230.075 40.704C231.755 40.704 233.243 40.98 234.539 41.532C235.835 42.06 236.915 42.78 237.779 43.692C238.667 44.58 239.327 45.624 239.759 46.824C240.215 48 240.443 49.236 240.443 50.532C240.443 50.892 240.419 51.264 240.371 51.648C240.347 52.008 240.311 52.332 240.263 52.62H226.979C227.051 53.628 227.423 54.36 228.095 54.816C228.767 55.248 229.499 55.464 230.291 55.464C231.035 55.464 231.731 55.296 232.379 54.96C233.051 54.624 233.495 54.156 233.711 53.556L239.507 55.212C238.739 56.724 237.551 57.96 235.943 58.92C234.359 59.88 232.403 60.36 230.075 60.36ZM233.099 48.516C232.979 47.604 232.643 46.884 232.091 46.356C231.539 45.828 230.831 45.564 229.967 45.564C229.103 45.564 228.395 45.828 227.843 46.356C227.291 46.884 226.955 47.604 226.835 48.516H233.099ZM251.243 60V34.44H261.071C263.183 34.44 265.043 34.776 266.651 35.448C268.259 36.12 269.603 37.032 270.683 38.184C271.763 39.336 272.579 40.692 273.131 42.252C273.683 43.788 273.959 45.432 273.959 47.184C273.959 49.128 273.647 50.892 273.023 52.476C272.423 54.036 271.559 55.38 270.431 56.508C269.303 57.612 267.947 58.476 266.363 59.1C264.779 59.7 263.015 60 261.071 60H251.243ZM266.831 47.184C266.831 46.2 266.699 45.3 266.435 44.484C266.171 43.668 265.787 42.972 265.283 42.396C264.803 41.82 264.203 41.376 263.483 41.064C262.763 40.728 261.959 40.56 261.071 40.56H258.263V53.88H261.071C261.983 53.88 262.799 53.712 263.519 53.376C264.239 53.04 264.839 52.572 265.319 51.972C265.823 51.372 266.195 50.664 266.435 49.848C266.699 49.032 266.831 48.144 266.831 47.184ZM276.369 60V41.064H283.209V60H276.369ZM276.369 39.48V33.72H283.209V39.48H276.369ZM293.941 60C292.717 60 291.589 59.76 290.557 59.28C289.549 58.776 288.685 58.104 287.965 57.264C287.245 56.4 286.681 55.392 286.273 54.24C285.889 53.088 285.697 51.84 285.697 50.496C285.697 49.08 285.913 47.772 286.345 46.572C286.777 45.372 287.377 44.34 288.145 43.476C288.937 42.612 289.873 41.94 290.953 41.46C292.033 40.956 293.221 40.704 294.517 40.704C295.885 40.704 297.085 40.98 298.117 41.532C299.149 42.06 299.965 42.84 300.565 43.872V41.064H306.505V58.272C306.505 59.76 306.229 61.104 305.677 62.304C305.125 63.504 304.345 64.524 303.337 65.364C302.329 66.204 301.117 66.852 299.701 67.308C298.285 67.788 296.713 68.028 294.985 68.028C292.969 68.028 291.217 67.716 289.729 67.092C288.241 66.468 286.921 65.568 285.769 64.392L289.369 60.648C290.065 61.296 290.893 61.836 291.853 62.268C292.837 62.724 293.881 62.952 294.985 62.952C295.609 62.952 296.197 62.868 296.749 62.7C297.325 62.532 297.829 62.256 298.261 61.872C298.693 61.512 299.029 61.032 299.269 60.432C299.533 59.832 299.665 59.112 299.665 58.272V57.048C299.113 58.056 298.321 58.8 297.289 59.28C296.281 59.76 295.165 60 293.941 60ZM296.389 54.6C297.085 54.6 297.685 54.444 298.189 54.132C298.717 53.796 299.209 53.304 299.665 52.656V49.272C299.329 48.408 298.825 47.724 298.153 47.22C297.505 46.716 296.821 46.464 296.101 46.464C295.621 46.464 295.165 46.584 294.733 46.824C294.325 47.04 293.965 47.34 293.653 47.724C293.341 48.084 293.101 48.528 292.933 49.056C292.765 49.56 292.681 50.1 292.681 50.676C292.681 51.852 293.029 52.8 293.725 53.52C294.421 54.24 295.309 54.6 296.389 54.6ZM309.978 60V41.064H316.818V60H309.978ZM309.978 39.48V33.72H316.818V39.48H309.978ZM333.563 58.956C332.603 59.364 331.571 59.712 330.467 60C329.387 60.264 328.319 60.396 327.263 60.396C326.495 60.396 325.763 60.3 325.067 60.108C324.371 59.916 323.759 59.604 323.231 59.172C322.727 58.74 322.319 58.176 322.007 57.48C321.719 56.784 321.575 55.92 321.575 54.888V46.212H319.235V41.064H321.575V35.124H328.415V41.064H332.123V46.212H328.415V52.476C328.415 53.1 328.547 53.544 328.811 53.808C329.075 54.048 329.435 54.168 329.891 54.168C330.227 54.168 330.611 54.12 331.043 54.024C331.475 53.904 331.907 53.748 332.339 53.556L333.563 58.956ZM341.081 60.36C340.145 60.36 339.269 60.204 338.453 59.892C337.637 59.58 336.929 59.16 336.329 58.632C335.753 58.08 335.297 57.432 334.961 56.688C334.625 55.944 334.457 55.14 334.457 54.276C334.457 53.316 334.661 52.44 335.069 51.648C335.477 50.856 336.041 50.172 336.761 49.596C337.481 49.02 338.333 48.576 339.317 48.264C340.325 47.952 341.429 47.796 342.629 47.796C344.165 47.796 345.437 48.036 346.445 48.516V47.94C346.445 47.052 346.181 46.392 345.653 45.96C345.149 45.528 344.321 45.312 343.169 45.312C342.089 45.312 341.093 45.492 340.181 45.852C339.269 46.188 338.309 46.692 337.301 47.364L335.321 43.116C337.817 41.508 340.661 40.704 343.853 40.704C346.877 40.704 349.205 41.376 350.837 42.72C352.469 44.064 353.285 46.08 353.285 48.768V52.44C353.285 53.088 353.381 53.544 353.573 53.808C353.765 54.048 354.101 54.192 354.581 54.24V60C354.029 60.12 353.501 60.204 352.997 60.252C352.517 60.324 352.085 60.36 351.701 60.36C350.477 60.36 349.541 60.144 348.893 59.712C348.269 59.256 347.861 58.596 347.669 57.732L347.525 57.048C346.685 58.128 345.713 58.956 344.609 59.532C343.505 60.084 342.329 60.36 341.081 60.36ZM343.133 55.464C343.541 55.464 343.961 55.404 344.393 55.284C344.825 55.14 345.209 54.96 345.545 54.744C345.809 54.552 346.025 54.348 346.193 54.132C346.361 53.892 346.445 53.652 346.445 53.412V52.008C346.037 51.864 345.593 51.744 345.113 51.648C344.633 51.552 344.201 51.504 343.817 51.504C342.977 51.504 342.281 51.708 341.729 52.116C341.177 52.524 340.901 53.04 340.901 53.664C340.901 54.192 341.105 54.624 341.513 54.96C341.945 55.296 342.485 55.464 343.133 55.464ZM356.908 33.72H363.748V52.476C363.748 53.916 364.336 54.636 365.512 54.636C365.8 54.636 366.112 54.588 366.448 54.492C366.784 54.396 367.096 54.264 367.384 54.096L368.248 59.136C367.432 59.52 366.508 59.82 365.476 60.036C364.468 60.252 363.508 60.36 362.596 60.36C360.772 60.36 359.368 59.892 358.384 58.956C357.4 58.02 356.908 56.664 356.908 54.888V33.72Z" fill="#B51419"></path>
    <defs>
        <linearGradient id="paint0_linear" x1="40.6984" y1="44.0609" x2="40.6984" y2="21.5984" gradientUnits="userSpaceOnUse">
            <stop stop-color="#A4090B"></stop>
            <stop offset="1" stop-color="#C51E25"></stop>
        </linearGradient>
        <linearGradient id="paint1_linear" x1="50.8849" y1="70.8633" x2="50.8849" y2="22.6226" gradientUnits="userSpaceOnUse">
            <stop stop-color="#A4090B"></stop>
            <stop offset="1" stop-color="#C51E25"></stop>
        </linearGradient>
    </defs>
</svg>