<svg width="154" height="38" viewBox="0 0 154 38" fill="none" xmlns="http://www.w3.org/2000/svg"><path d="M82.732 7.542a3.527 3.527 0 11-2.175-3.27 3.534 3.534 0 012.175 3.27zm9.127 0a3.527 3.527 0 11-2.175-3.27 3.536 3.536 0 012.175 3.27z" fill="#F4D400"/><path d="M58.08 19.55l4.448-5.408c.322-.388.139-.827-.344-.827h-3.337a1.163 1.163 0 00-.907.454l-3.044 3.885v-3.658a.645.645 0 00-.732-.732h-2.443a.636.636 0 00-.732.732V26.55a.635.635 0 00.732.732h2.458a.637.637 0 00.732-.732V21.7l4.105 5.121a1.061 1.061 0 00.826.483h3.469a.49.49 0 00.373-.805l-5.605-6.95zm68.889-6.295h-10.442a.596.596 0 00-.595.596v2.711a.593.593 0 00.595.595h3.292v9.553a.597.597 0 00.595.595h2.689a.594.594 0 00.596-.595v-9.553h3.255a.596.596 0 00.595-.595v-2.711a.597.597 0 00-.595-.596M96.148 24.174h-3.36v-2.63h3.36c2.055 0 2.21 2.63 0 2.63zm-3.36-7.78h2.535a1.106 1.106 0 010 2.21h-2.535v-2.21zm6.351 3.242c2.483-2.387.825-6.38-2.991-6.38H89.59a.597.597 0 00-.597.596V26.71a.597.597 0 00.597.596h7.198c4.995 0 6.328-5.761 2.35-7.67zm-13.221-5.784a.597.597 0 00-.597-.596H82.22a.597.597 0 00-.597.596V26.71a.597.597 0 00.597.596h3.102a.597.597 0 00.596-.596V13.852zm62.454 5.877h-2.104v-3.237h2.053c1.382 0 1.861.648 1.861 1.582 0 .801-.368 1.633-1.81 1.633v.022zm.294-6.473h-5.723a.596.596 0 00-.595.595V26.71a.594.594 0 00.595.596h2.715a.596.596 0 00.596-.596v-3.795h2.206c3.149 0 5.539-1.655 5.539-4.789 0-2.942-2.449-4.847-5.377-4.847m-16.458 8.487l1.541-4.594 1.541 4.594h-3.082zm8.909 4.8l-4.756-12.77a.733.733 0 00-.785-.536h-3.618a.736.736 0 00-.793.536l-4.77 12.77a.486.486 0 00.211.694.481.481 0 00.266.04h3.038a.668.668 0 00.588-.426l.623-1.871h5.24l.617 1.87a.665.665 0 00.587.426h3.038a.487.487 0 00.557-.471.493.493 0 00-.072-.262m-62.399.143V13.852a.596.596 0 00-.597-.596h-2.947a.671.671 0 00-.552.302l-5.526 7.53v-7.236a.597.597 0 00-.597-.596H65.7a.597.597 0 00-.597.596V26.71a.597.597 0 00.597.596h2.991a.671.671 0 00.546-.302l5.525-7.53v7.236a.597.597 0 00.597.596h2.719a.604.604 0 00.604-.596h-.037z" fill="#0087E6"/><path d="M115.02 24.641l-1.609-1.697a.599.599 0 00-.463-.22.616.616 0 00-.404.16 4.66 4.66 0 01-3.131 1.184 3.77 3.77 0 010-7.54 4.637 4.637 0 013.131 1.176.586.586 0 00.66.104.599.599 0 00.207-.162l1.609-1.698a.59.59 0 00-.015-.83 7.684 7.684 0 00-5.548-2.308 7.473 7.473 0 000 14.94 7.682 7.682 0 005.563-2.279.573.573 0 00.176-.426.57.57 0 00-.161-.404h-.015zM19.59 14.59h-.012a2.529 2.529 0 002.512-2.533V2.76a2.523 2.523 0 10-5.023 0v9.297a2.53 2.53 0 002.511 2.534h-.01.021zm-5.894 4.304a2.517 2.517 0 01-3.175 1.63l-8.796-2.875a2.534 2.534 0 011.557-4.822l8.796 2.874a2.534 2.534 0 011.618 3.193zm12.264.864a2.518 2.518 0 01-.477-.864 2.539 2.539 0 011.618-3.192l8.801-2.875a2.534 2.534 0 011.557 4.822l-8.795 2.874a2.518 2.518 0 01-2.703-.765zM7.54 37.495a2.545 2.545 0 01-.558-3.544l5.436-7.495a2.517 2.517 0 013.522-.558 2.545 2.545 0 01.558 3.544l-5.43 7.489a2.523 2.523 0 01-3.528.558v.006zm25.108-1.657a2.544 2.544 0 01-1.01 1.657v.022a2.515 2.515 0 01-3.521-.558l-5.436-7.523a2.527 2.527 0 011.448-3.948 2.53 2.53 0 012.637.968l5.43 7.495c.394.544.557 1.223.452 1.887z" fill="#0087E6"/></svg>