<?xml version="1.0" standalone="no"?>
<!DOCTYPE svg PUBLIC "-//W3C//DTD SVG 20010904//EN"
 "http://www.w3.org/TR/2001/REC-SVG-20010904/DTD/svg10.dtd">
<svg version="1.0" xmlns="http://www.w3.org/2000/svg"
 width="290.000000pt" height="114.000000pt" viewBox="0 0 290.000000 114.000000"
 preserveAspectRatio="xMidYMid meet">

<g transform="translate(0.000000,114.000000) scale(0.100000,-0.100000)"
fill="#FFFFFF" stroke="none">
<path d="M2850 1136 c0 -2 7 -7 16 -10 8 -3 12 -2 9 4 -6 10 -25 14 -25 6z"/>
<path d="M2690 1078 c-52 -11 -100 -24 -106 -29 -6 -5 -26 -45 -45 -89 -19
-44 -37 -80 -40 -80 -4 0 -17 29 -30 65 -12 36 -27 65 -33 65 -6 0 -71 -14
-143 -31 l-133 -31 -1 -57 -1 -56 -14 32 c-21 50 -53 65 -131 64 -104 -1 -227
-49 -303 -118 -39 -35 -51 -31 -29 9 12 23 18 24 -163 -18 l-107 -25 -15 -47
c-8 -26 -31 -99 -50 -163 l-36 -116 -58 -10 c-31 -6 -59 -9 -61 -7 -3 2 26 74
63 160 37 86 65 158 62 161 -3 3 -61 -7 -129 -22 l-123 -28 -103 -234 c-57
-129 -101 -237 -98 -239 4 -5 435 21 538 32 l57 6 22 61 23 62 18 -43 c27 -63
84 -87 190 -79 95 6 175 40 238 100 38 37 42 39 36 17 -4 -14 -14 -38 -22 -53
-8 -16 -12 -31 -9 -34 3 -3 62 -2 131 3 l126 9 45 100 c26 55 49 104 53 108 5
4 26 -38 48 -95 l39 -103 70 3 c38 2 72 7 77 11 8 8 327 720 327 731 0 4 -14
4 -32 2 -26 -4 -30 -2 -25 12 8 20 -1 20 -123 -6z m50 -25 c-17 -31 -100 -236
-97 -240 2 -2 26 45 53 103 28 62 58 113 71 122 46 29 58 60 -184 -478 l-79
-175 -47 -6 c-28 -3 -51 -1 -56 5 -5 6 -32 75 -61 153 -51 139 -69 175 -57
113 5 -23 -7 -58 -54 -159 l-61 -129 -86 -4 c-48 -3 -89 -4 -91 -2 -2 2 22 61
54 131 31 71 59 137 60 149 2 11 38 89 80 172 85 166 77 158 185 177 l35 6 33
-92 c18 -50 31 -98 27 -108 -4 -10 -3 -13 4 -6 5 6 33 64 62 130 29 66 54 122
56 124 5 6 112 29 141 30 18 1 20 -2 12 -16z m-522 -145 c-28 -52 -42 -54 -46
-6 -3 37 4 44 51 47 17 1 17 -2 -5 -41z m-171 2 c97 -34 59 -204 -84 -375 -68
-81 -63 -84 16 -11 l44 41 -19 -35 c-10 -19 -48 -65 -84 -101 -57 -58 -75 -70
-134 -88 -37 -12 -90 -21 -117 -21 -63 0 -126 31 -135 66 -26 102 68 282 201
383 l30 23 -30 -17 c-16 -10 -49 -33 -72 -52 -63 -51 -52 -22 20 50 105 108
270 169 364 137z m-443 -122 c-4 -13 -15 -41 -24 -63 -17 -39 -19 -40 -101
-59 -98 -22 -94 -33 5 -13 36 7 66 11 66 8 0 -3 -21 -60 -47 -125 -36 -90 -49
-114 -52 -96 -3 18 -9 4 -20 -45 l-16 -70 -63 -9 c-34 -5 -65 -7 -67 -4 -4 4
77 279 103 347 6 16 22 29 48 37 l39 13 -37 -6 c-43 -6 -42 -7 -27 35 10 28
17 32 92 51 108 26 110 26 101 -1z m-426 -219 c-38 -88 -68 -162 -66 -164 1
-1 38 5 80 13 42 9 80 14 83 11 3 -3 -3 -30 -13 -60 -22 -64 -23 -64 -195 -76
-89 -6 -117 -5 -117 4 0 7 11 42 24 78 13 36 22 65 19 65 -2 0 -20 -36 -40
-80 -33 -74 -53 -99 -53 -67 0 6 38 100 86 208 l85 196 50 11 c66 16 92 15 84
0 -3 -7 0 -5 7 5 7 9 18 17 25 17 6 0 -19 -70 -59 -161z"/>
<path d="M1801 708 c-80 -106 -124 -258 -76 -258 45 0 146 163 161 260 7 43
-7 54 -35 28 -11 -11 -13 -10 -8 5 10 29 0 20 -42 -35z m55 -56 c-19 -53 -73
-159 -86 -167 -15 -9 -12 9 9 65 38 101 110 196 77 102z"/>
<path d="M493 1059 c24 -14 21 -29 -5 -29 -13 0 -32 -7 -42 -15 -24 -18 -89
-19 -116 -2 -17 10 -27 8 -61 -11 -25 -15 -48 -21 -62 -17 -22 6 -22 6 -2 -10
16 -13 17 -17 6 -24 -8 -5 -21 -7 -29 -3 -10 3 -13 1 -8 -6 4 -7 16 -12 27
-12 27 0 24 -15 -8 -40 -19 -15 -35 -19 -52 -15 -25 6 -25 6 -7 -14 17 -19 17
-20 -13 -35 -31 -17 -61 -61 -61 -92 0 -16 1 -16 18 -1 18 16 42 23 42 12 0
-3 -9 -14 -20 -25 -11 -11 -20 -30 -20 -42 0 -12 -8 -30 -17 -41 -18 -20 -17
-20 12 -13 l30 6 -24 -21 c-14 -11 -33 -18 -43 -15 -16 4 -17 2 -7 -10 16 -19
58 -18 81 3 10 9 18 11 18 5 0 -18 -28 -40 -66 -52 -34 -12 -54 -40 -54 -77 0
-14 4 -13 23 5 13 12 26 22 30 22 13 0 7 -30 -13 -67 -11 -21 -20 -53 -20 -71
0 -27 6 -36 35 -53 19 -12 35 -26 35 -31 0 -6 5 -6 14 1 20 17 29 -2 22 -47
l-6 -37 22 37 c29 47 56 62 33 18 -8 -16 -15 -42 -15 -57 0 -16 -7 -39 -17
-52 -16 -24 -16 -24 13 -17 36 9 70 40 78 72 4 13 11 24 16 24 5 0 2 -23 -6
-51 -18 -58 -21 -100 -9 -119 6 -10 10 -8 16 9 9 23 46 42 67 33 10 -3 7 -11
-9 -28 -12 -13 -21 -26 -18 -28 6 -5 120 10 143 20 13 5 17 4 13 -3 -4 -6 8
-5 31 3 20 7 55 13 77 14 24 0 50 8 65 20 15 12 18 18 8 14 -33 -11 -18 5 36
41 64 42 89 80 30 45 -21 -11 -40 -17 -43 -13 -7 9 -43 9 -58 0 -5 -3 -10 8
-10 26 0 18 -5 48 -10 68 -7 23 -7 59 0 102 5 37 6 79 2 94 l-7 28 -9 -24 -9
-23 -22 28 c-12 16 -37 46 -56 68 -74 84 -79 161 -15 235 32 38 35 47 30 83
-9 66 3 78 79 78 35 0 81 -7 101 -15 44 -18 40 -19 46 7 l6 21 33 -25 c21 -17
32 -34 31 -47 -3 -23 7 -27 25 -9 6 6 15 8 19 5 4 -4 0 -15 -9 -23 -12 -13
-20 -14 -36 -5 -32 17 -74 13 -98 -10 -20 -19 -27 -20 -55 -10 -47 16 -65 14
-94 -14 l-27 -24 29 2 c19 1 27 -2 25 -12 -2 -9 4 -12 18 -8 11 3 18 1 14 -4
-3 -5 3 -9 13 -9 17 -1 17 -1 1 -11 -10 -5 -18 -15 -18 -20 0 -6 6 -7 13 -2 6
4 21 6 32 5 16 -2 17 -1 6 7 -12 8 -12 12 -2 25 24 28 79 37 156 24 l70 -12
-45 -7 c-25 -3 -56 -2 -70 3 -23 8 -23 7 5 -16 17 -14 38 -25 49 -26 10 0 31
-11 46 -24 31 -26 27 -41 -15 -65 -17 -10 -12 -11 29 -9 41 2 50 -1 56 -17 6
-18 9 -16 29 15 12 19 24 45 27 57 8 30 -30 95 -68 117 -29 18 -29 18 -9 33
12 8 21 21 21 30 0 13 -3 13 -15 3 -13 -10 -15 -9 -15 8 0 12 -7 37 -17 56
-13 28 -20 33 -33 26 -12 -6 -22 -3 -36 13 l-19 22 -3 -24 c-3 -22 -6 -20 -21
15 -10 21 -26 45 -35 53 -16 13 -17 12 -10 -15 l7 -29 -27 33 c-30 34 -49 42
-39 16 4 -12 -5 -9 -35 10 -48 30 -53 31 -46 11 8 -19 3 -19 -32 0 -34 18 -91
21 -61 4z m97 -79 c10 -7 -2 -8 -40 -4 -30 4 -57 8 -59 10 -10 9 86 3 99 -6z
m40 -15 c11 -13 10 -14 -4 -9 -9 3 -16 10 -16 15 0 13 6 11 20 -6z m-225 -53
c6 -4 17 -16 25 -27 14 -19 14 -20 -6 -2 -11 9 -36 17 -55 18 -32 1 -32 2 -9
9 34 11 34 11 45 2z m-18 -43 c-9 -5 -28 -7 -42 -3 -43 11 -36 19 13 15 34 -2
41 -6 29 -12z m343 -43 c0 -2 -8 -10 -17 -17 -16 -13 -17 -12 -4 4 13 16 21
21 21 13z m-114 -33 c-7 -7 -26 7 -26 19 0 6 6 6 15 -2 9 -7 13 -15 11 -17z
m232 17 c13 0 22 -6 22 -16 0 -11 -5 -14 -17 -9 -10 3 -39 11 -65 16 -59 13
-63 23 -5 15 23 -3 52 -6 65 -6z m-438 -19 c0 -5 -13 -13 -28 -19 -16 -5 -29
-16 -29 -23 0 -8 -4 -23 -9 -33 -7 -18 -5 -18 25 3 39 28 50 21 26 -15 -11
-18 -20 -23 -24 -15 -12 18 -59 -4 -98 -47 l-34 -36 12 31 c6 18 30 50 54 72
24 22 41 42 37 45 -9 10 30 46 50 46 10 0 18 -4 18 -9z m504 -6 c22 -17 13
-35 -17 -35 -17 0 -19 2 -8 9 12 8 12 12 2 25 -16 20 -3 20 23 1z m26 -61
c-18 -21 -24 -10 -9 18 8 14 14 18 17 10 2 -7 -2 -19 -8 -28z m-31 11 c2 -3 0
-10 -5 -15 -6 -6 -19 -4 -36 4 -15 8 -35 17 -45 20 -10 3 4 3 31 1 27 -3 52
-7 55 -10z m53 -79 c-8 -18 -16 -22 -36 -19 -34 7 -33 31 2 59 26 22 27 22 36
3 6 -12 5 -28 -2 -43z m-597 -43 c-17 -40 -43 -73 -57 -73 -11 0 19 55 46 88
27 31 29 28 11 -15z m21 -85 c-9 -20 -25 -40 -37 -43 -11 -4 -29 -21 -40 -38
l-19 -32 0 32 c0 26 11 43 50 83 28 28 51 56 51 63 1 6 4 3 6 -8 2 -11 -3 -37
-11 -57z m84 -59 c0 -24 -7 -42 -21 -55 -12 -10 -29 -35 -40 -54 l-18 -35 0
30 c0 18 11 46 29 69 17 22 30 45 30 52 0 20 -105 -63 -119 -93 -6 -14 -14
-23 -17 -20 -12 12 9 48 47 78 22 17 49 50 61 72 l20 41 14 -25 c7 -13 13 -40
14 -60z m47 -83 c-3 -7 -20 -24 -37 -36 l-32 -23 34 45 c30 40 48 47 35 14z
m3 -99 c-8 -7 -27 -18 -42 -25 -23 -9 -26 -9 -21 3 3 8 19 19 37 24 43 13 42
13 26 -2z m20 -112 c-7 -8 -27 -17 -46 -21 -19 -3 -45 -15 -59 -26 -18 -14
-23 -15 -19 -4 8 20 51 48 89 57 45 11 48 10 35 -6z m76 -75 c0 -23 -39 -34
-97 -28 l-34 4 45 13 c37 11 84 27 85 30 1 1 1 -8 1 -19z"/>
<path d="M575 889 c-5 -5 -21 -18 -35 -30 -20 -17 -21 -19 -5 -14 49 17 106
18 124 1 9 -9 21 -13 24 -9 12 11 8 40 -8 53 -12 10 -15 9 -15 -5 0 -17 -1
-17 -18 -2 -20 19 -51 21 -67 6z"/>
<path d="M505 760 c-3 -5 -1 -10 4 -10 6 0 11 5 11 10 0 6 -2 10 -4 10 -3 0
-8 -4 -11 -10z"/>
<path d="M545 750 c3 -5 8 -10 11 -10 2 0 4 5 4 10 0 6 -5 10 -11 10 -5 0 -7
-4 -4 -10z"/>
<path d="M447 698 c-7 -4 29 -7 78 -6 91 1 86 5 -13 10 -30 2 -59 0 -65 -4z"/>
<path d="M635 690 c-19 -8 -19 -9 2 -9 12 -1 25 4 28 9 7 12 -2 12 -30 0z"/>
<path d="M648 653 c7 -3 16 -2 19 1 4 3 -2 6 -13 5 -11 0 -14 -3 -6 -6z"/>
<path d="M629 613 c-13 -15 -11 -16 14 -9 30 7 36 -4 12 -24 -8 -7 -13 -15
-11 -19 5 -8 -10 -145 -20 -186 -6 -24 -4 -27 10 -22 10 4 16 1 16 -7 0 -8 6
-16 13 -19 6 -2 9 -8 5 -12 -5 -5 -17 0 -28 10 -18 17 -20 17 -20 1 0 -28 40
-98 53 -92 55 23 87 28 115 18 24 -8 33 -7 42 3 27 32 -23 40 -124 20 -36 -7
-39 -6 -31 11 5 10 10 38 13 62 2 23 8 42 13 42 15 0 31 -41 25 -66 -6 -21 -4
-23 16 -15 26 10 32 11 52 11 9 0 15 17 18 50 3 33 13 59 27 73 11 13 21 30
21 38 0 11 2 12 9 1 7 -11 10 -10 15 3 9 24 8 27 -6 19 -8 -5 -9 -2 -4 12 5
10 12 33 16 49 7 30 6 31 -32 31 -21 0 -38 -4 -38 -8 0 -5 -4 -7 -10 -3 -5 3
-16 -7 -24 -22 -7 -16 -24 -37 -35 -48 l-22 -19 10 28 c6 15 11 41 11 57 0 27
3 29 38 30 34 0 35 1 13 10 -17 7 -34 6 -53 -2 -22 -9 -35 -9 -54 0 -34 15
-49 14 -65 -6z m75 -44 c-10 -12 -24 -37 -30 -58 -9 -27 -12 -31 -13 -13 -1
27 16 62 38 79 24 19 26 15 5 -8z m137 -67 c-16 -26 -35 -58 -41 -72 l-10 -25
5 27 c6 32 69 140 73 127 2 -5 -10 -31 -27 -57z"/>
</g>
</svg>
